<?xml version="1.0" standalone="no"?>
<!DOCTYPE svg PUBLIC "-//W3C//DTD SVG 20010904//EN"
 "http://www.w3.org/TR/2001/REC-SVG-20010904/DTD/svg10.dtd">
<svg version="1.0" xmlns="http://www.w3.org/2000/svg"
 width="1080.000000pt" height="1080.000000pt" viewBox="0 0 1080.000000 1080.000000"
 preserveAspectRatio="xMidYMid meet">

<g transform="translate(0.000000,1080.000000) scale(0.100000,-0.100000)"
fill="#fff" stroke="none">
<path d="M9030 8225 c0 -1823 0 -1826 -20 -1815 -11 6 -20 16 -21 23 0 12 -62
101 -146 210 -172 224 -478 476 -766 631 l-107 57 -35 69 c-89 177 -251 427
-390 600 -610 764 -1512 1271 -2565 1444 -447 73 -542 76 -2506 76 l-1714 0 0
-4045 0 -4046 1852 4 c1374 3 1884 7 1973 16 289 29 703 105 905 165 49 15 50
15 216 -40 360 -116 705 -163 1124 -150 719 21 1320 263 1804 726 145 138 327
368 385 483 9 17 22 32 30 32 11 0 13 -100 12 -592 l-2 -593 386 -2 c213 -2
389 -1 391 1 2 2 4 1932 4 4288 l0 4283 -405 0 -405 0 0 -1825z m-4585 542
c237 -27 375 -47 469 -68 423 -94 704 -198 1046 -389 105 -58 298 -183 359
-233 21 -18 65 -53 98 -78 76 -61 94 -78 246 -227 123 -121 155 -158 143 -169
-2 -3 -85 -6 -183 -8 -700 -12 -1353 -244 -1874 -667 -109 -88 -318 -299 -404
-408 -287 -361 -491 -795 -586 -1248 -102 -485 -100 -1074 5 -1540 112 -494
317 -912 631 -1286 63 -76 205 -216 217 -216 5 0 8 -7 8 -15 0 -42 -178 -48
-1647 -52 l-1363 -4 0 3316 0 3316 1348 -4 c1146 -4 1368 -7 1487 -20z m2709
-1906 c66 -11 125 -26 132 -33 16 -17 84 -205 122 -338 140 -485 175 -1056 97
-1584 -157 -1068 -804 -1940 -1770 -2388 -66 -30 -128 -58 -137 -61 -37 -13
-293 179 -439 330 -336 347 -538 768 -621 1293 -20 127 -23 182 -23 435 0 252
3 309 23 432 82 517 269 912 605 1277 110 119 327 294 432 348 17 9 68 37 115
62 88 49 272 125 350 146 25 6 70 20 100 30 50 17 319 63 430 74 110 10 467
-3 584 -23z m1211 -593 c15 -18 50 -58 79 -89 160 -177 308 -415 408 -659 232
-565 249 -1310 43 -1899 -134 -384 -361 -725 -640 -961 -381 -322 -818 -486
-1388 -521 -117 -7 -192 -8 -198 -2 -10 10 41 55 96 87 76 44 247 179 389 310
124 113 330 337 416 451 25 34 51 67 57 75 55 65 173 246 245 375 349 622 507
1260 508 2041 0 303 -22 592 -56 725 -26 104 -10 129 41 67z"/>
</g>
</svg>
